<svg version="1.1" id="Layer_1" xmlns="http://www.w3.org/2000/svg" x="0" y="0" viewBox="0 0 1021.6 1080" xml:space="preserve"><style>.st2{fill:#fff}.st3{fill:#fff200}</style><switch><foreignObject requiredExtensions="http://ns.adobe.com/AdobeIllustrator/10.0/" x="0" y="0" width="1" height="1"/><g><radialGradient id="SVGID_1_" cx="510.82" cy="540" r="285.995" gradientTransform="matrix(1 0 0 -1 0 1080)" gradientUnits="userSpaceOnUse"><stop offset="0" style="stop-color:red"/><stop offset=".36" style="stop-color:#fd0000"/><stop offset=".489" style="stop-color:#f60000"/><stop offset=".582" style="stop-color:#eb0000"/><stop offset=".657" style="stop-color:#da0000"/><stop offset=".721" style="stop-color:#c40101"/><stop offset=".777" style="stop-color:#a80101"/><stop offset=".829" style="stop-color:#880101"/><stop offset=".876" style="stop-color:#620202"/><stop offset=".919" style="stop-color:#370202"/><stop offset=".958" style="stop-color:#090303"/><stop offset=".963" style="stop-color:#030303"/></radialGradient><circle cx="510.8" cy="540" r="271.2" style="fill:url(#SVGID_1_)"/><radialGradient id="SVGID_00000088850528578690252000000008980373123547178660_" cx="510.82" cy="540" r="279.185" gradientTransform="matrix(1 0 0 -1 0 1080)" gradientUnits="userSpaceOnUse"><stop offset="0" style="stop-color:red"/><stop offset=".373" style="stop-color:#fd0000"/><stop offset=".508" style="stop-color:#f60000"/><stop offset=".604" style="stop-color:#eb0000"/><stop offset=".682" style="stop-color:#da0000"/><stop offset=".748" style="stop-color:#c40101"/><stop offset=".807" style="stop-color:#a80101"/><stop offset=".86" style="stop-color:#880101"/><stop offset=".909" style="stop-color:#620202"/><stop offset=".955" style="stop-color:#370202"/><stop offset=".995" style="stop-color:#090303"/><stop offset="1" style="stop-color:#030303"/></radialGradient><circle style="fill:url(#SVGID_00000088850528578690252000000008980373123547178660_)" cx="510.8" cy="540" r="264.7"/><path class="st2" d="M418.2 477.2c2.1 0 3.8.6 5.2 1.9 1.3 1.3 2 3.4 2 6.3 0 1.6-.2 3.2-.7 4.5s-.9 2.5-1.4 3.4h-46.9v3.7c4.9.1 9.5.7 14 1.9s8.4 2.9 11.8 5.2 6.1 5.2 8.1 8.6 3 7.5 3 12.2c0 3.8-.6 7-1.7 9.8s-2.6 5-4.4 6.8-3.8 3.1-6 4-4.4 1.3-6.6 1.3c-3.9 0-6.8-1-8.8-3.2s-3-4.7-3-7.8c0-1.3.1-2.5.4-3.7s.6-2.2 1.1-2.9h2.1q1.95 0 3.6-1.2c1.1-.8 1.6-2.3 1.6-4.4 0-2.2-1.1-4.2-3.4-5.9-2.2-1.7-6.2-2.8-11.9-3.3v49.4q-1.5 1.65-4.5 2.7c-3 1.05-4.4 1-7.4 1-.7 0-1.4 0-1.9-.1s-.9-.2-1.3-.3c-4.2-3.1-8.2-6-11.9-8.5s-7.4-5-11.1-7.2-7.6-4.3-11.6-6.4-8.5-4.2-13.4-6.4c-1.4-2.1-2.5-4.7-3.2-7.8-.8-3.1-1.2-6.2-1.2-9.2 0-.7 0-1.4.1-1.9 0-.5.1-1 .2-1.5 3.3-2.3 6.8-4.5 10.6-6.6s7.6-4.1 11.6-5.9 8-3.5 12.1-5 8-2.7 11.9-3.7v-3.4h-48.6c-2.1 0-3.8-.6-5.2-1.9-1.3-1.3-2-3.4-2-6.3 0-1.6.2-3.2.7-4.5s.9-2.5 1.4-3.4zm-63.1 38.9q-6.6 1.65-12.6 4.5c-4 1.9-7.5 3.8-10.4 5.8 3.3 1.7 7 3.8 11.1 6.2s8.2 5 12.4 7.8c-.2-2.4-.3-5-.4-7.7s-.1-5.1-.1-7z"/><path class="st2" d="M464.4 477.2c-3.1-3.7-5.6-7.5-7.4-11.6-1.8-4-2.7-8.6-2.7-13.6 0-2.9.4-5.5 1.2-7.6s1.9-3.9 3.2-5.2 2.8-2.4 4.5-3 3.4-1 5-1c2.8 0 5.3.9 7.4 2.7s3.4 4.1 4.1 7c-1.4 1.2-2.4 2.7-3.1 4.4s-1 3.6-1 5.6c0 3.2.8 6.8 2.3 10.7 1.6 3.9 3.9 7.8 7 11.6h43.2c2.1 0 3.8.6 5.2 1.9 1.3 1.3 2 3.4 2 6.3 0 1.6-.2 3.2-.7 4.5s-.9 2.5-1.4 3.4h-37.6l3.7 3.2c2.9 2.5 5.7 5.2 8.2 8 2.5 2.9 4.7 5.9 6.5 9s3.2 6.3 4.2 9.6 1.5 6.5 1.5 9.8c0 5-1 9.5-3 13.3s-4.6 7.1-7.9 9.7-7.1 4.6-11.3 5.9-8.6 2-13.1 2c-5.3 0-10.1-.8-14.3-2.4s-7.9-3.7-10.9-6.4c-3.1-2.7-5.5-5.8-7.4-9.4-1.8-3.6-3-7.4-3.4-11.4 1.6-.9 3.5-2.2 5.7-3.8 2.1-1.6 4.3-3.6 6.4-6-1.8-2.6-3.8-4.6-5.9-6.1s-4.4-2.3-7.1-2.3c-2.9 0-5.2.8-6.7 2.4s-2.3 3.5-2.3 5.7c0 1.3.3 2.6.8 4-.5 1.3-1.6 2.4-3.1 3.4q-2.25 1.5-5.7 1.5c-3.3 0-6.1-1-8.4-3.1s-3.4-5.2-3.4-9.4q0-5.1 2.1-9c2.1-3.9 3.4-4.8 5.8-6.6s5.2-3.2 8.5-4.1c3.2-1 6.6-1.4 10.2-1.4 5.3 0 9.8 1 13.5 2.9s6.9 4.5 9.6 7.6c.4-1.4.7-2.8.9-4.3q.3-2.25.3-4.8c0-1.8 0-3.3-.1-4.5-.1-1.1-.2-2.2-.4-3.1h-51c-2.1 0-3.8-.6-5.2-1.9-1.3-1.3-2-3.4-2-6.3 0-1.6.2-3.2.7-4.5s.9-2.5 1.4-3.4zm33.6 53.6c0-3.6-.8-7.2-2.5-10.9-1.6-3.7-4.3-7.5-7.8-11.4 0 3.6-.4 6.9-1.2 10s-1.9 5.9-3.2 8.5c-1.4 2.6-2.9 4.9-4.7 7-1.7 2.1-3.6 3.8-5.5 5.3.7 1.6 2 3 3.9 4.5s4.4 2.1 7.5 2.1c3.8 0 7-1.2 9.6-3.7 2.5-2.4 3.9-6.2 3.9-11.4"/><path class="st2" d="M598.4 584.9c-6.4-3.8-13.5-7.6-21.3-11.3q-11.7-5.55-23.7-10.5c-.4-.4-.7-1-1-2.1s-.6-2.1-.8-3.4c-.2-1.2-.4-2.5-.5-3.7s-.2-2.3-.2-3.2c0-2 .2-3.7.5-5.1 2.5-1.6 5.3-3.1 8.6-4.8 3.2-1.6 6.7-3.1 10.3-4.5s7.3-2.6 10.9-3.8c3.7-1.2 7.2-2.1 10.5-2.8v-5.1c-1.9-.2-3.9-.5-6-1.1s-4.1-1.3-6.1-2.3-4-2.3-5.8-3.8-3.6-3.3-5-5.4c-2.4 4.7-5.9 8.2-10.5 10.7s-9.5 3.7-14.6 3.7c-4 0-7.1-.9-9.3-2.6s-3.2-4.3-3.2-7.7q0-1.95.6-3.9c.4-1.3.9-2.5 1.6-3.4h4.5c2.6 0 5-.3 7.2-1 2.2-.6 4.2-1.6 6-2.9q2.55-1.95 4.2-4.8c1-1.9 1.7-4.1 1.9-6.7h-29c-2.1 0-3.8-.6-5.2-1.9-1.3-1.3-2-3.4-2-6.3 0-1.6.2-3.2.7-4.5s.9-2.5 1.4-3.4h109c2.1 0 3.8.6 5.2 1.9 1.3 1.3 2 3.4 2 6.3 0 1.6-.2 3.2-.7 4.5s-.9 2.5-1.4 3.4h-16.5q3.3 4.35 3.3 10.5c0 3.9-1 7.2-3 10.1s-4.7 5.2-8 7.1v60.7c-1 1-2.5 1.9-4.4 2.5-1.9.7-4.3 1-7 1-.7 0-1.3 0-1.9-.1-.7-.1-1-.2-1.3-.3m-4.7-21.9c-.1-2.1-.2-4-.3-5.6s-.1-3.2-.1-4.8v-7q-5.1 1.05-10.2 3.3c-3.4 1.5-6.3 2.8-8.6 4.1 1 .5 2.3 1.1 3.8 1.8s3.2 1.6 5 2.5 3.6 1.9 5.4 2.8c1.8 1.1 3.5 2 5 2.9m9-62.1c0-2.1-.7-3.8-2.1-5.2-1.4-1.3-3.3-2.1-5.6-2.3h-17.5c1.6 5.4 3.8 9.3 6.6 11.6s6 3.5 9.5 3.5q4.2 0 6.6-2.1c2.4-2.1 2.5-3.2 2.5-5.5"/><path class="st2" d="M714.8 477.2c2.1 0 3.8.6 5.2 1.9 1.3 1.3 2 3.4 2 6.3 0 1.6-.2 3.2-.7 4.5s-.9 2.5-1.4 3.4h-16.7v70.3q-1.5 1.65-4.5 2.7c-3 1.05-4.4 1-7.4 1-.7 0-1.3 0-1.9-.1s-.9-.2-1.3-.3c-4.4-3.1-8.5-6-12.4-8.6-3.8-2.6-7.7-5.1-11.6-7.4-3.8-2.3-7.8-4.5-12-6.5q-6.15-3-13.5-6-2.25-3.15-3.3-7.8c-.7-3.1-1.1-6.2-1.1-9.2 0-.7 0-1.4.1-1.9s.1-1 .2-1.5c3.4-2.3 7-4.5 10.9-6.6 3.8-2.1 7.8-4.1 12-5.9 4.1-1.8 8.3-3.5 12.5-5s8.3-2.7 12.3-3.7v-3.4H632c-2.1 0-3.8-.6-5.2-1.9-1.3-1.3-2-3.4-2-6.3 0-1.6.2-3.2.7-4.5s.9-2.5 1.4-3.4zm-51.5 89.6c0 3.6-1.2 6.4-3.5 8.5s-5.2 3.2-8.5 3.2c-1.6 0-3.1-.3-4.5-.8s-2.8-1.3-3.8-2.4-2-2.3-2.6-3.7-1-3-1-4.8c0-3.5 1.2-6.3 3.6-8.3 2.4-2.1 5.2-3.1 8.5-3.1 3.2 0 6 1.1 8.3 3.3 2.4 2.1 3.5 4.8 3.5 8.1m18.7-50.7c-4.7 1.1-9.1 2.6-13.3 4.5s-7.9 3.8-11.1 5.8c3.7 1.7 7.7 3.8 12.2 6.3s8.7 5 12.7 7.8c-.2-2.4-.3-5-.4-7.7-.1-2.8-.1-5.1-.1-7z"/><path class="st3" d="M491.4 601.8c0 .6-.5 1-1.4 1.3h-.8c-.7 0-1.2.2-1.7.7-.2.2-.5.6-.9 1.4v14.3q0 1.35-.9 1.8l2.9 1.5c.1.2.1.3.1.4 0 .5-.3.8-1 .9H486l-3.1-1.7-.5-2.2c.6-.2.9-.7.9-1.4V615c0-.2-.3-.6-.8-1.2-.6-.5-1-.9-1.3-1-.3 0-1.6 1.1-3.8 3.2-2.1 2-3.8 2.9-5 2.9-.5 0-1.5-.4-3-1.1-.4-.2-.9-.6-1.3-1.1 0-.7.3-1.2.8-1.4q.6.3 1.8.6c.6-.1 1.5-.5 2.4-1.3 1-.8 1.6-1.5 1.7-2 0-.1.1-.3.1-.6 0-1.4-.5-2.5-1.6-3.4s-2.5-1.2-4.2-1.2q-.75-.6-1.2-2.1c.1-.4.6-1 1.4-1.7-.6-.4-1.4-.7-2.3-.7h-2.1c-.3-.4-.5-.8-.5-1.1q0-.75.9-1.2.75-.3 1.8-.3 1.8 0 3.9 1.5 5.7-1.5 8.7-1.5c2.4 0 4.6.7 6.4 2 1.4-1.3 2.6-1.9 3.7-1.9 1.1.2 1.6.6 1.6 1.4m-8.1 9.5v-6.2c0-1.3-1.3-2-4-2-1.2 0-2.5.1-3.8.4-1.7.4-2.8.8-3.3 1.3 2.1.8 3.5 1.5 4.1 2.2.8.8 1.2 2.4 1.2 4.6 1.7-1.5 2.8-2.3 3.2-2.3.8 0 1.7.7 2.6 2"/><path class="st3" d="M505.8 603.2c-2.9.2-5.4 1.5-7.6 4-2 2.3-3.1 4.7-3.1 7.1 0 1.9.7 3.3 2 4 .4.2 1 .6 1.7 1 .2.1.4.1.7.1.2 0 .6-.3 1.1-.8s1-.8 1.4-.8c1.5 0 2.2.7 2.2 2.1q0 1.2-1.2 1.8c-.8.5-1.7.7-2.7.7-1.7 0-3.4-.6-5-1.9-.4-.3-.9-.7-1.6-1.3-.5-.5-1-1.3-1.4-2.2q-.6-1.35-.6-2.4c0-2 .5-3.9 1.6-5.9s2.6-3.6 4.4-5c-1.6-.5-3-.8-4.2-.8-.6 0-1.5.1-2.6.4s-1.8.4-2.2.4c-.3 0-.5-.2-.5-.5s.2-.9.6-1.8q.6-1.2 2.7-1.2c3 0 5.6.6 8 1.8q1.8-.9 3.3-1.2c1.7-.3 2.6-.5 2.7-.5.2 0 .4 0 .6.1s.4.1.5.1v2.5c-.1-.1-.2-.2-.4-.2z"/><path class="st3" d="M531.7 603.1c-1.9-.3-2.9-.4-3.1-.4-.7 0-1.6.2-2.6.7 1.2 1.3 1.9 2.4 2.3 3.3.6 1.5.9 2.8.9 3.7 0 4-1.6 7.1-4.9 9.3-1.7 1.1-3.2 1.7-4.5 1.7-2.5 0-5.3-1.4-8.5-4.1-2.5-2.2-4.2-4.4-5.1-6.7.1-.4.2-.9.4-1.3s.5-.7 1.1-.7c.3 0 .7.1 1.1.3 1.4 2.7 2.8 4.7 4.3 6.1 2.1 2 4 3 5.6 3 2.2 0 4-.9 5.3-2.6 1.1-1.5 1.7-3.2 1.7-5v-.6c-.3-1.4-.8-2.7-1.7-3.9q-1.65-2.4-3.6-2.4c-.9 0-1.8.4-2.8 1.2s-1.5 1.5-1.5 2.2c0 .3.1.6.3 1 .3.2.5.2.7.2 0 0 .2-.1.7-.4.4-.3.8-.4 1.2-.4.5 0 1 .2 1.5.5s.7.6.7 1c0 .7-.4 1.2-1.1 1.7-.8.5-1.5.7-2.4.7-1.5 0-2.7-.4-3.7-1.2s-1.5-1.8-1.5-2.9q0-1.35.9-2.7c-.3-.2-.8-.4-1.5-.7-1.1-.3-2.5-.5-4.1-.5-1.5 0-2.6.1-3.4.3-.7-.3-1-.8-1-1.4 0-.3.5-.7 1.4-1.2.5-.1 1.3-.2 2.5-.2 3.1 0 5.7.6 7.9 1.9 2-1.2 3.8-1.7 5.3-1.7 1.3 0 2.5.4 3.5 1.2 1.4-.9 3.2-1.4 5.5-1.4 2.4 0 3.5.5 3.5 1.5 0 .5-.2.8-.6 1-.2-.2-.3-.2-.7-.1"/><path class="st3" d="M546.2 602c0 .5-.3.9-1 1.1-.2.1-.4.1-.5.1-.4 0-.9 0-1.7-.1s-1.3-.1-1.7-.1c-.8 0-1.4.2-1.8.5-.1.1-.3.3-.6.8q-.6.9-.6 2.1c0 1.1.7 3.1 2 6.1s2 4.7 2 5.3c0 .7-.2 1.7-.7 2.7-.4 1.1-1 1.8-1.6 2.3-1.2 1-2.5 1.8-4.1 2.6-1.2-.2-1.8-.7-1.8-1.3 0-.5.3-1 .8-1.4q3.3-2.25 3.3-4.5 0-.9-.3-1.5c-.8-1.5-1.5-3-2.3-4.5-.9-2-1.4-3.5-1.4-4.6 0-1.6.3-2.7 1.1-3.5-.7-.5-1.3-.8-1.9-.9-.3 0-1.1-.1-2.3-.1-.1 0-.4 0-.9.1-.3-.1-.4-.4-.4-.8 0-.5.2-.9.7-1.3s1-.6 1.5-.6c1.5 0 3 .6 4.6 1.9 1.4-1.2 2.7-1.9 4.1-1.9 2.3 0 3.9.1 4.7.3.6.4.8.8.8 1.2"/><path class="st3" d="M570.6 601.7c0 .9-.4 1.6-1.2 2.2H568c-.7 0-1.2.1-1.4.3-.4.3-.7.6-1 .9v12.6c0 .8-.7 1.7-2 2.7l2.8 2.8v.2c0 .5-.6.8-1.8.8-.8 0-1.4-.1-1.6-.2-.5-.5-1.1-1.1-1.9-1.8-1.1-1-2.5-2.3-4.2-3.7-1-.9-2.4-1.8-4.2-2.6-1.8-.9-3.5-1.4-4.8-1.6-1.2-1.1-1.9-2.1-1.9-3.1 0-.2.1-.5.2-.7.2-.4 1-1.1 2.5-2.1 1.3-.8 4-2.3 8-4.5-1.1-.5-2.4-.7-3.8-.7-2 0-4.9.3-8.8.9-.9-.6-1.4-1.2-1.4-2 0-.5.3-.8.8-1 1.1-.1 2.4-.2 3.7-.3 3.1-.2 5.1-.2 5.8-.2 2.2 0 4.2.6 6.2 1.9 1.8-1.1 3.3-1.7 4.3-1.7 1.1 0 1.8.6 1.9 1.8l2.2-1.5c.5-.3 1.1-.5 1.7-.5.9 0 1.3.4 1.3 1.1m-14.9 20.6c0 .8-.9 1.5-2.6 2-2.1-.3-3.2-1.1-3.2-2.3 0-.3.1-.6.2-1.1.1-.2.5-.4 1.2-.7q.9-.3 1.5-.3c.7 0 1.3.3 1.9.8.7.6 1 1.1 1 1.6m6.5-5.8v-11.6c-.2.2-.7.3-1.2.5-2.5 1-5.9 3.1-10.2 6.1l2.1 1c2.2 1 4.9 2.8 8.1 5.6.8-.5 1.2-1.1 1.2-1.6m36 5.8c-.7 0-1.1-.1-1.2-.2l-1.6-1.7-1.4-1.4q-.9-.6-2.1-.6c-.2 0-1 .4-2.3 1.2q-1.95 1.2-3.9 1.2c-2 0-3.5-.2-4.4-.6-2.5-1.1-4.3-2.6-5.3-4.5l.2-.9c.5-.5 1-.7 1.3-.7.1 0 .4 0 .8.2.2.2.4.6.6 1 .7 1 1.6 1.7 2.6 2.1.7.2 1.9.3 3.8.3.9 0 1.9-.4 3.2-1.2q1.95-1.2 3.6-1.2c1 0 2.4.6 4.1 1.8.4.3 1 .8 1.8 1.4.3.3.4.5.3.5.2.1.3.3.5.5.1-.1.1-.2.1-.3v-9.5c0-.7-.3-1.3-.8-1.7l-11.1 5c-1.5-.8-2.2-1.5-2.2-2.1 0-1.4.7-3 2-4.7-.9-.4-1.8-.9-2.8-1.5-.6-1-1-1.6-1-1.9s0-.5.2-.8q.15-.45 2.4-.9 1.8-.45 3-.6c.7-.1 1.3-.1 1.8-.1 1.9 0 3.6.4 5.2 1.1q1.05.45 3.3 3v-2.2c0-.1.2-.3.3-.6.6-.9 1.6-1.4 3.2-1.4 2 0 3.4.2 4.2.7.4.2.7.7.7 1.2 0 .6-.2 1-.7 1.2l-.5.1c-1-.4-1.9-.6-2.8-.6-.7 0-1.1.4-1.1 1.2v15.4c0 .7-.4 1.3-1.2 1.9l2.2 1.4c0 .2.1.3.1.3 0 .6-.5.8-1.4.8-.4.1-1.7-.4-3.7-1.6m-1.8-16.5c-.1-.4-.6-.8-1.4-1.4s-1.4-.9-1.9-1c-.9-.2-1.7-.3-2.3-.3-1.6 0-2.7.2-3.1.6.8.3 1.7.8 2.7 1.4l.4.3c-.2 0-.6.5-1.3 1.4s-1 1.7-1 2.2c0 .1 0 .3.2.5z"/><path class="st3" d="M633.6 594.9c0 .8-.7 1.5-2.1 2.2-1 .5-2.3.8-3.7.8-1.6 0-3.5-.5-5.6-1.6s-3.7-1.6-4.9-1.6c-2.5 0-4.7 1.5-6.6 4.6l1.7 2.4c1.1-.7 2.7-1 4.9-1 .5.1.7.5.7 1s-.4 1-1.3 1.4c-2.4 0-3.7.3-4 .9v15.5q0 1.05-.9 1.8l3.4 2.4c-.1.9-.7 1.4-1.8 1.4-.3 0-.6 0-1.1-.1l-3.8-2.3-.3-2q1.2-.75 1.2-1.2v-15.4c-.2-.5-.7-.8-1.6-.9-.7-.2-1.4-.2-2-.1-.4-.5-.5-1-.5-1.4 0-.5.3-.8.8-1 .8 0 2 .4 3.6 1.1l-2.4-3.1c.6-2.3 2.2-4.2 5-5.7 1.4-.7 2.5-1.1 3.5-1.1h1.3c1.7 0 3.6.6 5.9 1.8s3.9 1.8 4.8 1.8c1.8 0 3.1-.6 3.9-1.7 1.2-.1 1.9.4 1.9 1.1"/><path class="st3" d="M643.2 603.1c-1.9-.3-2.9-.4-3.1-.4-.7 0-1.6.2-2.6.7 1.2 1.3 1.9 2.4 2.3 3.3.6 1.5.9 2.8.9 3.7 0 4-1.6 7.1-4.9 9.3-1.7 1.1-3.2 1.7-4.5 1.7-2.5 0-5.3-1.4-8.5-4.1-2.5-2.2-4.2-4.4-5.1-6.7.1-.4.2-.9.4-1.3s.5-.7 1.1-.7c.3 0 .7.1 1.1.3 1.4 2.7 2.8 4.7 4.3 6.1 2.1 2 4 3 5.6 3 2.2 0 4-.9 5.3-2.6 1.1-1.5 1.7-3.2 1.7-5v-.6c-.3-1.4-.8-2.7-1.7-3.9q-1.65-2.4-3.6-2.4c-.9 0-1.8.4-2.8 1.2s-1.5 1.5-1.5 2.2c0 .3.1.6.3 1 .3.2.5.2.7.2 0 0 .2-.1.7-.4.4-.3.8-.4 1.2-.4.5 0 1 .2 1.5.5s.7.6.7 1c0 .7-.4 1.2-1.1 1.7-.8.5-1.5.7-2.4.7-1.5 0-2.7-.4-3.7-1.2s-1.5-1.8-1.5-2.9q0-1.35.9-2.7c-.3-.2-.8-.4-1.5-.7-1.1-.3-2.5-.5-4.1-.5-1.5 0-2.6.1-3.4.3-.7-.3-1-.8-1-1.4 0-.3.5-.7 1.4-1.2.5-.1 1.3-.2 2.5-.2 3.1 0 5.7.6 7.9 1.9 2-1.2 3.8-1.7 5.3-1.7 1.3 0 2.5.4 3.5 1.2 1.4-.9 3.2-1.4 5.5-1.4 2.4 0 3.5.5 3.5 1.5 0 .5-.2.8-.6 1-.2-.2-.4-.2-.7-.1m31.9-.7c2.1-1.2 3.4-1.7 3.7-1.7.9 0 1.4.6 1.7 1.9.3-.3.7-.8 1.4-1.3.7-.6 1.3-.9 1.6-.9h1.9q1.2.45 1.2 1.5c0 .8-.2 1.3-.5 1.6-.8-.2-1.3-.3-1.6-.3q-.9 0-1.5.3l-2.3 1.2v12.6c0 1-.5 1.8-1.7 2.4l2.9 2.9c.1.1.1.2.1.5 0 .7-.8 1.1-2.3 1.1q-.6 0-1.8-1.2c-3.3-3-6.6-5.4-10-7.1q-3.6-1.8-4.8-1.8l-.1-.1v3.1c0 1-.7 1.9-2 2.6l3.3 3v.7s0 .2-.2.4c-.3.5-.9.8-1.8.8-.6 0-1.2-.1-1.5-.3-.5-.5-1.1-1-1.8-1.7-1.5-1.4-2.9-2.7-4.3-3.8-1-.9-2.3-1.7-3.8-2.5-1.8-.9-3.3-1.3-4.5-1.3-.4-.5-.8-.9-1.3-1.4s-.7-1-.7-1.6 0-1 .1-1.3c.2-.1.5-.4.9-.7.2-.2 1.6-1 4.1-2.4l.3-.2c-3.3-.7-5-2-5-3.9 0-1.1.5-2 1.4-2.7s2.1-1 3.5-1c.7 0 1.5.1 2.3.3 1 .2 1.7.6 2 1s.5 1 .5 1.7q0 1.2-2.1 1.2h-.7c-.1 0-.2-.3-.5-.8-.2-.6-.6-.8-1.2-.8-1.1 0-1.7.4-1.7 1.1 0 1.4 1.3 2.1 3.8 2.1.2 0 .9 0 1.9-.1 1.9-.8 3.7-1.6 5.5-2.5v-.8c0-.7.5-1.2 1.4-1.5.3-.1.5-.2.6-.2.8 0 2.1.1 3.8.2l5.1.3c1.9.2 3.5.7 4.7 1.4m-15.5 13.9v-9.5c-.3.1-.7.2-1.2.4-3.1 1.2-6.2 2.7-9.3 4.7l4.5 2.4c.3.2.8.5 1.3.8l3.6 2.7c.7-.6 1.1-1.1 1.1-1.5m4.8-13.3c-.9 0-1.3.2-1.3.7v5.3c1.8-1.2 3.4-2.2 4.9-2.9 1.1-.5 2.6-1.3 4.7-2.3-1-.5-2.5-.8-4.2-.8zm12.8 13.5v-11.4l-5.8 2.9c-1 .5-2.8 1.6-5.5 3.4 1.5.7 3.2 1.7 5.2 3 1.7 1.1 3.3 2.2 5 3.2.8-.3 1.1-.6 1.1-1.1"/><path class="st3" d="M712.7 594.9c0 .8-.7 1.5-2.1 2.2-1 .5-2.3.8-3.7.8-1.6 0-3.5-.5-5.6-1.6s-3.7-1.6-4.9-1.6c-2.5 0-4.7 1.5-6.6 4.6l1.7 2.4c1.1-.7 2.7-1 4.9-1 .5.1.7.5.7 1s-.4 1-1.3 1.4c-2.4 0-3.7.3-4 .9v15.5q0 1.05-.9 1.8l3.4 2.4c-.1.9-.7 1.4-1.8 1.4-.3 0-.6 0-1.1-.1l-3.8-2.3-.3-2q1.2-.75 1.2-1.2v-15.4c-.2-.5-.7-.8-1.6-.9-.7-.2-1.4-.2-2-.1-.4-.5-.5-1-.5-1.4 0-.5.3-.8.8-1 .8 0 2 .4 3.6 1.1l-2.4-3.1c.6-2.3 2.2-4.2 5-5.7 1.4-.7 2.5-1.1 3.5-1.1h1.3c1.7 0 3.6.6 5.9 1.8s3.9 1.8 4.8 1.8c1.8 0 3.1-.6 3.9-1.7 1.2-.1 1.9.4 1.9 1.1"/><path class="st3" d="M721.9 602.1c0 .9-.3 1.3-1 1.3-1-.4-1.8-.7-2.4-.7-.5 0-.8.2-.9.4v11.6c0 1.1-.7 1.9-2.2 2.4 2 3.5 3.1 5.2 3.1 5.4 0 .6-.5 1-1.7 1-.7 0-1.2-.1-1.7-.4-1.1-2.1-1.9-3.5-2.4-4.3-1.1-1.6-2.2-2.9-3.4-3.8-1.7-1.3-3.3-2-4.7-2-1 0-1.9.2-2.7.7-.9.5-1.4 1.1-1.4 1.9q0 .6.6 1.5c.5.7.9 1.1 1.4 1.1.3 0 .8-.2 1.3-.7s1.1-.7 1.6-.7q2.4 0 2.4 2.1c0 .7-.4 1.2-1.1 1.8s-1.5.8-2.4.8c-.5 0-1-.1-1.5-.2-3.7-1-5.6-2.8-5.6-5.6 0-.9.1-1.5.3-1.9s.7-.9 1.5-1.5c1.6-1.2 3.4-1.8 5.3-1.8 3.1 0 6.2 1.5 9.1 4.5q.9-.3.9-.9v-8.5c-2.3-.9-4.1-1.5-5.5-1.8-1.5-.3-3.5-.5-5.8-.5-2.9 0-5.7.1-8.3.4-.6-.2-1-.5-1-1.1s.3-1.1 1-1.4c.6-.3 3-.5 7.1-.5 5 0 9.1.9 12.5 2.6v-1c.2-.4.5-.8.9-1.1.5-.4 1.5-.6 3.1-.6-.1 0 .2 0 .9.1 1.8.1 2.7.6 2.7 1.4"/></g></switch></svg>